<?xml version="1.0" standalone="no"?>
<!DOCTYPE svg PUBLIC "-//W3C//DTD SVG 20010904//EN"
 "http://www.w3.org/TR/2001/REC-SVG-20010904/DTD/svg10.dtd">
<svg version="1.0" xmlns="http://www.w3.org/2000/svg"
 width="1656.000000pt" height="1368.000000pt" viewBox="0 0 1656.000000 1368.000000"
 preserveAspectRatio="xMidYMid meet">

<g transform="translate(0.000000,1368.000000) scale(0.100000,-0.100000)"
fill="#000000" stroke="none">
<path d="M2920 13059 c-801 -47 -1601 -624 -1957 -1412 -219 -483 -267 -974
-137 -1382 136 -425 430 -708 900 -864 244 -81 470 -115 759 -114 456 1 848
112 1143 323 l82 59 -6 -57 c-13 -127 -44 -332 -59 -400 l-17 -72 -49 0 c-83
0 -333 -29 -477 -56 -312 -57 -502 -118 -747 -239 -398 -198 -607 -423 -607
-655 0 -161 77 -269 253 -353 169 -82 353 -113 609 -104 388 14 696 137 947
380 234 225 393 477 498 787 29 85 35 95 59 98 37 5 219 -24 374 -58 195 -44
308 -38 269 13 -30 41 -325 127 -532 157 -44 6 -85 13 -91 15 -8 2 -6 30 7 97
51 246 79 600 60 753 -16 131 -35 198 -88 305 -39 80 -61 109 -137 186 -75 75
-107 98 -176 132 -176 85 -360 110 -685 93 -216 -11 -326 -29 -437 -70 -64
-25 -81 -40 -76 -73 2 -16 18 -30 53 -48 44 -22 62 -25 160 -25 75 1 144 8
216 23 122 26 160 22 257 -27 195 -98 252 -298 147 -509 -143 -284 -515 -488
-926 -509 -339 -16 -636 101 -884 351 -192 194 -287 382 -335 662 -76 441 11
901 250 1335 387 700 919 1089 1490 1089 261 0 472 -88 642 -268 87 -93 129
-167 157 -277 59 -234 47 -427 -44 -670 -20 -53 -35 -104 -33 -113 7 -36 75
-57 188 -57 165 0 198 25 255 195 40 120 56 216 62 355 22 551 -315 909 -932
989 -142 19 -262 23 -405 15z m665 -4066 c-27 -108 -126 -329 -206 -460 -215
-351 -569 -579 -931 -600 -227 -13 -368 52 -414 190 -44 132 42 302 230 454
287 231 742 392 1231 436 100 9 98 10 90 -20z"/>
<path d="M12843 11665 c-146 -40 -250 -132 -389 -341 -283 -428 -398 -659
-571 -1154 -80 -230 -76 -235 -92 104 -10 198 -2 568 15 648 12 59 -34 88
-140 88 -73 0 -171 -23 -206 -49 -73 -53 -153 -429 -167 -786 l-6 -160 -49
-115 c-95 -222 -188 -369 -303 -479 -111 -105 -223 -137 -300 -87 -57 38 -114
159 -146 311 -26 124 -24 299 6 740 14 198 25 396 25 441 l0 81 56 6 c92 10
131 49 80 83 -52 33 -185 46 -450 42 -213 -3 -257 -7 -293 -22 -23 -10 -44
-24 -47 -33 -15 -37 40 -73 113 -73 67 0 66 4 47 -212 -25 -297 -49 -820 -43
-948 3 -63 13 -142 22 -175 51 -194 171 -322 360 -386 59 -20 90 -24 200 -24
150 0 226 19 335 82 134 79 291 263 374 441 16 34 32 62 35 62 3 0 16 -45 28
-101 24 -109 86 -248 148 -332 50 -67 86 -80 207 -75 120 5 143 18 175 104 12
32 65 176 118 319 204 551 399 1016 512 1220 77 139 200 316 281 404 l69 75 7
-131 c7 -119 5 -138 -18 -229 -85 -338 -183 -834 -220 -1125 -82 -633 -6
-1026 222 -1147 101 -54 197 -75 352 -76 192 -1 301 31 316 91 9 36 -17 53
-80 53 -111 0 -231 92 -291 223 -45 98 -65 198 -72 347 -12 266 38 588 192
1229 96 400 107 458 112 586 6 134 -11 237 -49 314 -19 37 -35 52 -93 83 -142
77 -289 109 -382 83z"/>
<path d="M9272 11611 c-117 -30 -270 -204 -396 -451 -194 -378 -341 -773 -400
-1070 -22 -112 -23 -114 -34 -80 -22 65 -34 194 -28 280 10 128 22 193 82 455
30 132 64 281 75 331 17 73 18 99 10 130 -34 126 -213 210 -430 202 -132 -4
-165 -19 -244 -114 -161 -191 -443 -674 -587 -1006 -18 -43 -35 -77 -36 -75
-3 3 34 235 51 316 8 40 33 137 54 215 22 79 42 168 46 198 7 54 6 57 -21 74
-41 27 -217 32 -319 9 -123 -27 -153 -70 -215 -310 -16 -60 -38 -161 -50 -223
-54 -288 -219 -618 -432 -862 -75 -86 -175 -177 -184 -168 -10 11 -55 190 -76
308 -33 186 -33 586 2 895 13 121 25 245 25 275 0 54 -1 55 -40 75 -33 16 -63
20 -168 22 -118 2 -131 5 -173 29 -162 95 -475 104 -679 18 -128 -53 -283
-198 -370 -345 -101 -172 -194 -410 -236 -609 -30 -140 -33 -411 -6 -540 55
-263 223 -390 515 -390 240 0 413 114 564 372 35 59 65 107 68 107 3 1 12 -29
21 -67 57 -236 209 -346 479 -345 255 1 376 96 554 436 31 59 56 106 56 105 0
-2 5 -70 10 -153 15 -239 52 -420 93 -457 35 -31 136 -68 203 -75 78 -7 152
10 204 48 58 42 64 62 46 143 -9 37 -16 82 -16 99 0 18 29 125 65 240 160 508
308 838 530 1177 66 102 175 243 182 236 2 -2 -14 -114 -36 -247 -68 -411 -75
-473 -75 -644 0 -171 12 -241 58 -340 50 -108 149 -184 286 -221 92 -24 269
-25 332 -1 l46 18 36 147 c19 81 51 219 71 307 55 245 110 434 182 615 113
286 232 510 312 584 l31 30 0 -92 c0 -121 -19 -301 -85 -792 -149 -1115 -152
-1397 -16 -1608 121 -186 299 -269 559 -260 109 4 172 18 172 39 0 4 -27 22
-59 40 -81 42 -170 137 -216 229 -132 262 -135 655 -9 1435 98 610 134 932
119 1052 -5 45 -14 63 -45 97 -98 106 -337 187 -458 157z m-3676 -851 l24 -36
-45 -169 c-96 -362 -218 -663 -374 -927 -52 -88 -136 -198 -151 -198 -10 0
-46 93 -61 157 -22 102 -30 256 -19 382 30 330 171 653 404 925 l50 59 74 -79
c41 -43 85 -94 98 -114z"/>
<path d="M10215 11449 c-121 -18 -215 -66 -215 -110 0 -82 249 -147 462 -122
161 20 248 61 248 117 0 86 -266 148 -495 115z"/>
<path d="M14072 11119 c-30 -5 -88 -21 -130 -35 -216 -72 -350 -228 -447 -519
-85 -254 -110 -420 -102 -659 8 -231 40 -337 124 -418 106 -102 335 -146 536
-103 190 40 303 145 476 445 l32 55 -5 -110 c-3 -60 -9 -211 -12 -335 l-6
-226 -217 -166 c-504 -388 -757 -629 -869 -828 -138 -246 -81 -488 152 -639
140 -91 291 -128 479 -118 310 18 555 141 693 349 158 237 221 599 260 1484
l6 152 94 83 c223 196 475 473 599 659 54 82 135 235 135 257 0 12 -33 23 -65
22 -14 0 -44 -37 -106 -132 -48 -73 -127 -181 -175 -242 -94 -117 -459 -494
-468 -484 -4 3 -2 156 4 340 5 184 10 501 10 706 l0 372 -26 20 c-14 11 -51
25 -82 32 -77 16 -255 7 -307 -15 -39 -16 -41 -16 -97 9 -31 14 -92 32 -134
40 -82 16 -267 18 -352 4z m243 -178 c54 -25 138 -116 172 -187 15 -33 32 -62
37 -66 5 -3 2 -31 -7 -65 -8 -32 -23 -96 -32 -142 -50 -253 -203 -619 -327
-785 -82 -109 -203 -192 -253 -172 -44 16 -97 197 -110 371 -22 307 118 796
278 971 84 92 156 115 242 75z m215 -1978 c0 -255 -65 -686 -136 -901 -89
-272 -229 -418 -411 -430 -94 -6 -150 14 -219 80 -92 87 -132 220 -104 352 29
143 168 355 351 537 118 117 487 426 512 428 4 1 7 -29 7 -66z"/>
<path d="M5140 6572 l0 -539 118 34 c245 72 334 52 397 -88 23 -51 27 -72 23
-124 -6 -94 -54 -150 -168 -192 -25 -9 -48 -19 -52 -22 -4 -4 4 -46 17 -96 14
-49 24 -90 22 -91 -8 -8 -177 -47 -182 -42 -3 3 -42 138 -85 299 -44 161 -82
298 -84 304 -2 5 -5 -1184 -5 -2642 l-1 -2653 895 0 895 0 -2 841 -3 840 -155
64 c-85 36 -163 68 -173 71 -13 4 -44 -18 -110 -78 -275 -250 -472 -401 -613
-468 -61 -29 -78 -33 -149 -32 -209 2 -455 145 -540 314 -65 131 -44 230 117
553 71 143 96 188 222 400 l71 120 6 -74 7 -75 -97 -175 c-186 -336 -281 -551
-281 -635 0 -82 119 -212 261 -286 88 -46 119 -49 42 -4 -200 116 -262 222
-218 370 18 62 159 345 254 513 l70 124 21 -48 c20 -47 101 -168 120 -180 5
-3 -7 20 -26 52 -67 111 -96 216 -95 344 0 110 13 165 61 265 49 101 118 179
219 245 285 187 699 127 939 -136 l52 -57 0 686 0 685 -47 -14 c-27 -8 -53
-15 -58 -15 -6 0 -26 25 -44 55 -39 63 -41 64 -151 31 l-75 -22 -3 -70 -3 -70
-297 -81 c-261 -70 -298 -78 -304 -64 -11 24 -170 613 -166 616 2 2 43 14 91
26 69 18 90 21 96 11 4 -7 34 -109 66 -228 48 -176 61 -214 74 -210 85 25 213
57 216 54 2 -2 13 -36 24 -77 20 -73 31 -98 31 -70 -1 8 12 161 27 340 l27
327 79 22 c43 12 80 20 82 18 1 -2 73 -104 160 -228 86 -124 161 -229 166
-234 5 -6 9 45 8 125 l0 134 -124 110 c-68 61 -124 112 -125 115 0 3 45 17
101 32 l101 27 24 -27 23 -27 1 138 c0 105 -3 137 -13 137 -8 0 -27 53 -51
143 l-37 142 -150 134 c-82 73 -149 137 -149 141 0 4 39 17 88 30 48 13 92 25
98 27 6 2 40 -32 75 -76 35 -44 67 -80 70 -80 4 -1 12 45 19 100 11 85 16 102
31 106 18 5 19 21 19 304 l0 299 -895 0 -895 0 0 -538z m1494 -471 c108 -154
196 -281 196 -284 0 -8 -160 -48 -169 -43 -4 3 -23 29 -41 59 l-32 53 -94 -25
-94 -24 0 -61 c0 -34 -4 -66 -8 -73 -4 -6 -135 -46 -291 -88 -156 -42 -290
-79 -296 -81 -8 -3 -39 96 -95 303 -46 169 -85 313 -87 318 -5 16 185 65 191
50 2 -7 30 -109 62 -226 31 -118 58 -215 59 -216 1 -2 52 11 115 28 89 24 115
27 121 17 4 -7 15 -43 25 -81 9 -37 19 -66 21 -63 3 2 18 154 33 336 16 183
31 334 32 336 4 3 138 42 150 43 4 1 95 -125 202 -278z m-918 -852 c76 -36
134 -157 121 -251 -3 -21 -17 -57 -31 -79 -28 -42 -110 -95 -163 -105 -18 -3
-33 -10 -33 -14 0 -5 11 -49 24 -98 l24 -89 -92 -25 c-50 -14 -92 -24 -94 -23
-5 4 -173 628 -170 631 2 1 62 18 133 37 153 42 221 46 281 16z"/>
<path d="M6426 6119 c-2 -8 -7 -45 -11 -82 -5 -63 -4 -68 12 -63 10 2 37 10
61 16 l43 11 -37 52 c-55 76 -62 84 -68 66z"/>
<path d="M5533 5093 l-21 -4 19 -67 c10 -37 19 -68 19 -69 0 -6 68 22 83 35
23 20 22 67 -3 92 -19 19 -47 23 -97 13z"/>
<path d="M650 3910 l0 -3190 2135 0 2135 0 0 870 0 870 -1190 0 -1190 0 0
2320 0 2320 -945 0 -945 0 0 -3190z m1145 2899 c85 -26 134 -50 201 -99 57
-43 134 -126 134 -145 0 -7 6 -15 14 -18 16 -6 95 -147 93 -168 0 -8 18 -53
40 -100 23 -47 48 -109 57 -138 17 -58 40 -256 31 -271 -3 -5 -7 -50 -10 -101
-2 -51 -9 -97 -15 -103 -5 -5 -10 -22 -10 -37 0 -41 -59 -267 -86 -328 -42
-94 -86 -159 -121 -178 -18 -10 -36 -27 -39 -38 -10 -32 -145 -159 -196 -183
-25 -13 -75 -27 -110 -33 -34 -5 -89 -14 -120 -20 -122 -21 -223 18 -196 76 6
14 22 28 35 31 41 11 145 -1 157 -18 54 -74 268 -17 346 93 20 28 21 31 6 90
-9 33 -16 70 -16 82 -1 16 -8 9 -26 -25 -13 -27 -27 -48 -30 -48 -2 0 -26 11
-53 24 -90 46 -92 101 -10 340 61 180 121 314 145 323 9 3 31 -1 48 -9 17 -9
39 -19 49 -22 12 -4 17 -16 17 -41 0 -19 5 -35 10 -35 11 0 93 170 86 177 -2
2 3 25 10 50 8 25 14 69 14 98 0 56 -40 206 -72 268 -10 21 -17 41 -14 44 3 3
-22 36 -55 74 -32 38 -59 74 -59 79 0 6 -12 10 -27 10 -16 0 -68 22 -117 50
-134 75 -209 102 -296 108 -129 7 -249 -33 -411 -138 -34 -22 -73 -40 -86 -40
-12 0 -23 -5 -23 -11 0 -12 -79 -131 -93 -140 -5 -4 -23 -44 -39 -90 -52 -146
-50 -326 5 -447 23 -51 33 -59 42 -32 9 29 32 37 100 36 60 -1 60 -1 90 -46
27 -40 127 -304 154 -405 14 -53 14 -118 -1 -150 -12 -27 -64 -55 -103 -55
-12 0 -30 9 -40 20 -18 20 -19 20 -39 -17 -26 -46 -54 -52 -118 -23 -59 26
-88 63 -137 176 -45 106 -105 309 -97 331 4 9 2 21 -4 28 -6 7 -10 77 -11 161
-1 117 4 173 21 259 20 102 71 257 91 280 5 5 9 18 9 28 0 25 56 123 79 139
10 7 21 23 25 36 25 78 205 204 347 242 128 36 308 35 424 -1z m-50 -2713 c61
-13 157 -40 215 -59 58 -20 143 -43 190 -53 104 -20 249 -67 313 -102 64 -34
46 -52 -19 -19 -65 33 -219 81 -335 106 -52 11 -128 31 -169 46 -135 47 -270
75 -390 82 -104 5 -117 4 -139 -14 -29 -24 -24 -36 48 -118 100 -114 145 -246
145 -432 l1 -123 131 0 130 0 30 33 c38 40 64 82 64 102 0 12 16 15 98 15 111
0 133 -9 208 -86 48 -50 114 -177 133 -257 33 -137 34 -358 3 -487 -36 -145
-140 -232 -243 -201 -50 15 -125 83 -174 156 -34 52 -36 53 -67 44 -91 -26
-194 -1 -253 59 -26 28 -37 31 -86 32 -47 0 -59 -4 -80 -26 -40 -44 -116 -74
-184 -73 -33 1 -71 4 -85 8 -22 6 -29 1 -53 -37 -15 -24 -52 -68 -81 -97 -89
-90 -171 -97 -251 -24 -81 75 -116 213 -110 429 6 196 43 326 124 433 25 34
68 77 95 95 46 30 53 32 140 32 91 0 91 0 104 -29 7 -16 31 -50 54 -75 l40
-47 142 3 141 3 0 130 c0 110 -4 141 -24 203 -25 77 -74 160 -135 227 -60 66
-61 109 -6 138 29 16 50 18 130 13 52 -3 145 -17 205 -30z m2896 -2023 c11
-13 15 -113 17 -533 2 -512 2 -517 -18 -543 l-21 -27 -1359 0 -1359 0 -20 26
c-21 26 -21 36 -21 538 0 447 2 514 16 534 l15 22 1368 0 c1261 0 1370 -1
1382 -17z"/>
<path d="M1908 2059 c-17 -9 -18 -45 -18 -522 0 -386 3 -516 12 -525 17 -17
2699 -17 2716 0 9 9 12 139 12 525 0 496 -1 513 -19 523 -27 14 -2679 13
-2703 -1z m952 -189 l0 -70 340 0 340 0 0 70 0 70 520 0 520 0 0 -450 0 -450
-520 0 -520 0 0 45 0 45 -340 0 -340 0 0 -45 0 -45 -465 0 -465 0 0 450 0 450
465 0 465 0 0 -70z"/>
<path d="M2860 1695 l0 -65 340 0 340 0 0 65 0 65 -340 0 -340 0 0 -65z"/>
<path d="M2277 1714 c-4 -4 -7 -43 -7 -86 l0 -78 -80 0 -81 0 3 -127 3 -128
78 -3 77 -3 0 -79 0 -80 130 0 130 0 0 80 0 80 73 0 c39 0 78 4 85 8 9 7 12
39 10 128 l-3 119 -82 3 -82 3 -3 82 -3 82 -121 3 c-66 1 -123 -1 -127 -4z"/>
<path d="M2873 1593 c-8 -3 -13 -24 -13 -54 l0 -49 341 0 340 0 -3 53 -3 52
-325 2 c-179 1 -331 -1 -337 -4z"/>
<path d="M3662 1293 l3 -148 145 0 145 0 0 145 0 145 -148 3 -148 3 3 -148z
m209 68 c24 -24 29 -38 29 -76 0 -38 -5 -52 -29 -76 -20 -20 -39 -29 -61 -29
-22 0 -41 9 -61 29 -24 24 -29 38 -29 76 0 38 5 52 29 76 20 20 39 29 61 29
22 0 41 -9 61 -29z"/>
<path d="M4040 1290 l0 -150 145 0 c171 0 157 -16 153 170 l-3 125 -147 3
-148 3 0 -151z m211 71 c24 -24 29 -38 29 -76 0 -38 -5 -52 -29 -76 -20 -20
-39 -29 -61 -29 -22 0 -41 9 -61 29 -24 24 -29 38 -29 76 0 38 5 52 29 76 20
20 39 29 61 29 22 0 41 -9 61 -29z"/>
<path d="M2867 1423 c-4 -3 -7 -62 -7 -130 l0 -123 340 0 341 0 -3 128 -3 127
-331 3 c-182 1 -333 -1 -337 -5z m289 -98 c14 -21 15 -31 6 -50 -11 -24 -15
-25 -110 -25 -104 0 -122 7 -122 46 0 43 24 54 120 54 85 0 90 -1 106 -25z
m292 13 c16 -16 15 -63 -2 -77 -9 -8 -48 -11 -112 -9 l-99 3 -3 33 c-5 54 9
62 112 62 58 0 96 -4 104 -12z"/>
<path d="M7390 6849 c0 -157 4 -267 12 -297 9 -35 9 -47 0 -50 -17 -5 -15
-125 3 -192 13 -49 13 -56 0 -66 -10 -8 -15 -30 -15 -72 l0 -61 48 14 c74 23
77 22 93 -42 7 -32 13 -62 14 -68 0 -5 -34 -19 -75 -31 l-75 -21 -3 -101 -3
-101 68 19 c37 10 71 16 75 12 8 -9 38 -125 34 -130 -3 -2 -42 -14 -88 -26
l-83 -23 -3 -67 c-3 -61 -1 -67 15 -62 90 26 135 37 137 34 2 -1 10 -26 19
-55 l15 -52 -52 -15 c-28 -8 -70 -20 -94 -26 -33 -8 -42 -15 -38 -28 24 -83
29 -102 30 -102 1 0 51 14 111 30 61 16 115 30 122 30 11 0 43 -91 43 -122 0
-9 -37 -23 -107 -42 -60 -16 -129 -35 -155 -43 l-48 -14 0 -852 0 -852 313
-129 312 -130 125 3 c100 2 143 -2 210 -18 263 -65 470 -256 546 -506 27 -90
26 -258 -3 -350 -60 -189 -206 -338 -403 -411 -50 -18 -14 -17 51 2 83 25 185
82 245 139 30 28 54 46 54 40 0 -6 -27 -113 -60 -238 -105 -399 -203 -663
-278 -748 -17 -20 -60 -49 -94 -65 -59 -27 -71 -29 -183 -29 -108 1 -129 4
-208 32 -156 55 -269 137 -311 226 -58 123 -96 361 -119 731 l-12 208 -92 39
-93 38 0 -745 0 -744 793 2 792 3 3 1248 2 1247 1105 0 1105 0 0 770 0 770
-1105 0 -1105 0 0 405 0 405 1210 0 1210 0 0 765 0 765 -2005 0 -2005 0 0
-251z m1158 -217 c45 -169 82 -312 82 -319 0 -16 -176 -68 -184 -55 -2 4 -27
95 -56 202 -29 107 -54 198 -56 202 -3 4 -20 -2 -38 -13 l-33 -19 -46 74 -46
75 70 62 c50 44 85 66 127 80 102 32 87 58 180 -289z m-694 61 c59 -42 100
-126 100 -206 -1 -62 -18 -111 -48 -136 -14 -12 -3 -25 80 -104 66 -63 91 -93
82 -97 -7 -4 -53 -18 -101 -30 l-88 -23 -78 77 c-102 102 -118 98 -84 -21 13
-47 21 -88 18 -92 -7 -6 -165 -51 -165 -46 0 1 -38 144 -85 316 -47 172 -84
314 -82 315 2 2 211 59 282 78 48 12 129 -3 169 -31z m824 -618 c143 -60 166
-245 51 -406 -12 -17 -19 -32 -17 -34 2 -3 33 4 69 15 96 29 93 31 119 -60 13
-44 20 -83 17 -87 -7 -6 -420 -123 -424 -120 -1 2 -10 34 -21 72 l-19 69 60
100 c108 182 122 225 89 266 -24 30 -58 19 -79 -26 -9 -19 -19 -34 -22 -34 -3
0 -40 13 -81 30 -85 33 -90 44 -45 112 65 98 202 144 303 103z m-725 -196
c130 -36 200 -232 124 -348 l-27 -40 97 -90 96 -89 -44 -12 c-24 -6 -70 -18
-102 -27 l-57 -16 -80 77 c-111 106 -121 103 -86 -28 l23 -86 -56 -16 c-31 -8
-68 -19 -83 -24 -15 -5 -29 -6 -32 -2 -11 19 -169 623 -163 628 10 10 290 83
322 83 17 1 47 -4 68 -10z m15 -1830 c144 -143 172 -284 78 -387 -39 -43 -128
-80 -285 -117 -89 -22 -129 -53 -162 -130 -13 -30 -28 -55 -34 -55 -5 0 -31
10 -57 23 l-47 22 28 61 c53 116 116 162 261 195 88 19 160 47 197 75 28 21
33 31 33 65 0 59 -26 106 -96 176 l-62 61 31 41 c17 23 34 41 38 41 4 0 39
-32 77 -71z"/>
<path d="M7633 6543 c-13 -2 -23 -7 -23 -10 0 -21 33 -113 41 -113 24 0 78 30
89 49 19 36 -7 76 -50 77 -19 1 -45 0 -57 -3z"/>
<path d="M7788 5703 c-21 -5 -21 -7 -6 -73 11 -50 12 -51 42 -44 71 14 94 54
60 102 -15 22 -50 27 -96 15z"/>
<path d="M11660 6336 c0 -499 3 -767 10 -771 7 -4 10 -823 10 -2426 l0 -2419
2090 0 2090 0 0 685 0 685 -958 0 -958 0 -154 -331 c-140 -299 -159 -335 -200
-371 -53 -47 -634 -357 -669 -358 -22 0 -94 36 -371 183 -270 143 -303 163
-328 195 -33 44 -437 908 -459 981 -28 99 -9 186 67 293 32 45 48 69 140 209
l57 87 12 178 c6 99 18 274 26 389 8 116 17 257 20 315 9 172 11 178 60 212
39 27 44 37 50 80 7 48 9 51 79 96 100 65 410 202 456 202 6 0 10 -34 10 -82
l0 -83 88 -46 88 -46 92 46 92 46 0 82 c0 47 4 83 10 83 43 0 349 -135 450
-199 73 -46 75 -48 82 -96 5 -36 14 -54 32 -68 69 -50 65 -39 77 -212 23 -346
36 -515 40 -519 2 -2 334 -6 737 -8 l732 -3 0 548 0 547 -945 0 -945 0 0 645
0 645 1240 0 1240 0 0 685 0 685 -2095 0 -2095 0 0 -764z m3827 609 c64 -19
145 -90 179 -156 52 -104 69 -267 39 -384 -30 -113 -104 -196 -201 -225 -56
-17 -179 -9 -226 14 -83 40 -152 140 -178 257 -19 84 -8 261 18 321 65 146
218 218 369 173z m-443 -67 c10 -73 58 -730 54 -733 -4 -4 -221 -24 -225 -21
0 0 -9 110 -19 244 -10 133 -21 247 -24 252 -4 7 -20 5 -44 -5 -21 -9 -40 -15
-42 -13 -5 6 -75 191 -72 193 2 1 44 26 93 55 90 54 122 63 242 68 30 2 32 0
37 -40z m-944 -70 c0 -47 40 -521 44 -525 2 -3 64 0 137 7 72 6 135 7 139 3 4
-4 10 -52 14 -105 l6 -97 -42 -5 c-97 -13 -461 -37 -466 -31 -6 6 -60 655 -61
732 l-1 32 63 4 c166 9 167 9 167 -15z m-247 -75 c3 -43 4 -79 2 -81 -2 -2
-69 -9 -150 -15 l-147 -11 6 -29 c3 -16 6 -50 6 -75 l0 -45 114 7 113 7 7 -62
c8 -72 3 -79 -60 -79 -23 0 -68 -3 -100 -6 l-59 -6 5 -72 c5 -68 6 -71 30 -70
14 1 80 5 147 9 l122 7 5 -23 c3 -13 7 -50 8 -81 l3 -57 -50 -6 c-88 -9 -448
-36 -451 -33 -1 2 -10 107 -19 233 -9 127 -19 243 -23 260 -6 23 -21 -23 -78
-240 l-71 -270 -93 -8 c-52 -4 -99 -6 -104 -3 -6 2 -67 133 -136 291 l-125
287 -120 -7 c-66 -4 -121 -8 -121 -8 -1 -1 1 -35 3 -76 l6 -74 112 7 112 7 7
-62 c8 -72 3 -79 -60 -79 -23 0 -68 -3 -100 -6 l-59 -6 5 -72 c5 -68 6 -71 30
-70 14 1 80 5 147 9 l122 7 5 -23 c3 -13 7 -50 8 -81 l3 -57 -50 -6 c-90 -9
-448 -36 -451 -33 -1 2 -15 174 -31 382 -19 253 -25 379 -18 382 10 3 327 28
515 40 l96 7 84 -221 c47 -121 86 -219 87 -218 2 2 25 103 53 226 28 123 53
226 56 229 7 7 489 48 585 50 l66 1 6 -77z m-1863 -85 c0 -47 40 -521 44 -525
2 -3 64 0 137 7 72 6 135 7 139 3 4 -4 10 -52 14 -105 l6 -97 -42 -5 c-97 -13
-461 -37 -466 -31 -6 6 -60 655 -61 732 l-1 32 63 4 c166 9 167 9 167 -15z"/>
<path d="M15374 6722 c-52 -35 -50 -243 4 -304 24 -28 59 -23 77 12 17 33 20
142 5 204 -15 66 -56 109 -86 88z"/>
<path d="M5378 5933 c-22 -6 -22 -9 -1 -83 14 -53 19 -60 37 -54 42 12 71 40
74 73 6 57 -39 83 -110 64z"/>
<path d="M6577 5248 c-4 -29 -7 -68 -7 -86 0 -30 2 -32 28 -26 15 4 40 12 55
18 l28 11 -45 63 c-24 35 -47 66 -49 68 -2 3 -7 -19 -10 -48z"/>
<path d="M12874 4106 c-18 -13 -19 -30 -22 -261 -4 -283 -1 -295 66 -295 21 0
43 5 50 12 9 9 12 84 12 275 0 249 -1 263 -19 273 -27 14 -64 13 -87 -4z"/>
<path d="M12788 4033 c-16 -40 -23 -297 -9 -365 12 -54 36 -83 47 -55 2 7 3
109 2 226 -2 160 -6 215 -15 218 -7 3 -18 -8 -25 -24z"/>
<path d="M13012 3836 c2 -141 7 -227 13 -227 25 -4 39 59 42 191 4 155 -11
253 -40 258 -16 3 -17 -11 -15 -222z"/>
<path d="M6306 3499 l-29 -70 29 -60 c31 -67 34 -67 120 -30 35 16 44 27 69
86 l29 67 -25 19 c-27 21 -121 59 -147 59 -12 0 -26 -22 -46 -71z"/>
<path d="M6067 3452 c-23 -25 -47 -86 -47 -120 0 -26 6 -31 71 -57 l71 -28 59
18 c33 10 63 23 66 28 3 5 -7 35 -22 67 -26 55 -31 59 -94 84 -79 31 -83 31
-104 8z"/>
<path d="M12770 3403 c0 -90 4 -96 81 -133 l69 -34 69 34 69 33 4 76 c3 42 3
78 1 80 -1 2 -34 -10 -73 -28 l-70 -31 -67 30 c-36 16 -70 30 -74 30 -5 0 -9
-26 -9 -57z"/>
<path d="M6418 3292 c-26 -9 -50 -20 -54 -25 -4 -4 5 -34 20 -66 27 -56 31
-59 105 -90 72 -30 76 -31 89 -14 26 33 52 98 52 128 0 28 -5 32 -68 58 -78
31 -81 31 -144 9z"/>
<path d="M6242 3228 c-51 -19 -55 -24 -83 -86 -16 -36 -28 -71 -25 -78 6 -16
102 -61 147 -68 l36 -6 27 68 27 69 -27 62 c-15 33 -32 61 -38 60 -6 0 -35 -9
-64 -21z"/>
<path d="M12780 3170 l0 -80 38 -23 c95 -58 90 -57 163 -21 l66 33 7 62 c3 34
6 73 6 86 l0 23 -70 -35 -70 -35 -70 35 -70 35 0 -80z"/>
<path d="M7388 3006 l-3 -56 38 -15 c54 -21 66 -19 81 16 20 47 10 63 -47 85
-28 10 -55 20 -58 22 -4 2 -9 -22 -11 -52z"/>
<path d="M12795 2939 c5 -67 11 -88 27 -101 11 -10 26 -18 33 -18 7 0 18 -7
25 -15 18 -22 40 -19 101 14 l54 28 5 79 c3 44 4 81 2 84 -2 3 -31 -10 -65
-27 l-61 -33 -64 36 -64 36 7 -83z"/>
<path d="M12132 2839 l-43 -72 15 -161 c15 -154 46 -556 46 -600 0 -15 12 -4
41 39 39 58 40 62 35 125 -3 36 -12 178 -21 315 -8 138 -19 290 -23 338 l-7
88 -43 -72z"/>
<path d="M8263 2820 c-39 -24 -53 -48 -53 -95 0 -83 66 -141 152 -133 69 7
109 46 111 109 4 107 -118 176 -210 119z"/>
<path d="M7391 2713 c-1 -6 -4 -20 -7 -30 -5 -17 -5 -17 6 0 6 10 9 23 6 30
-3 9 -5 9 -5 0z"/>
<path d="M7932 2655 c-124 -104 34 -293 169 -202 68 46 70 138 3 196 -30 26
-43 31 -89 31 -43 0 -60 -5 -83 -25z"/>
<path d="M8452 2510 c-71 -43 -76 -134 -12 -195 24 -23 41 -30 88 -33 52 -4
61 -1 90 23 93 78 28 225 -100 225 -18 0 -48 -9 -66 -20z"/>
<path d="M8140 2357 c-13 -7 -35 -28 -48 -47 -37 -56 -15 -130 51 -170 58 -36
145 -20 181 32 20 28 20 90 1 128 -31 59 -124 88 -185 57z"/>
<path d="M13632 2068 c8 -13 21 -33 29 -45 21 -34 29 -28 29 22 l0 45 -36 0
c-35 0 -36 -1 -22 -22z"/>
<path d="M8428 1813 c7 -3 16 -2 19 1 4 3 -2 6 -13 5 -11 0 -14 -3 -6 -6z"/>
<path d="M12210 1698 c0 -8 75 -62 168 -120 92 -58 243 -153 336 -212 175
-110 207 -122 259 -95 21 12 648 408 656 416 3 2 0 8 -5 13 -9 9 -98 -44 -555
-336 -86 -55 -125 -74 -150 -74 -27 0 -101 43 -358 206 -179 113 -331 208
-338 211 -7 3 -13 -1 -13 -9z"/>
</g>
</svg>
